#!OML:ASF E:\Steps\Project 1\Capture day 1\Session 2\Subject.ASF
:FULLY-SPECIFIED
:DEGREES
191
root 15.1458 19.0958 19.7521 -158.392 -6.7705 175.36
lowerback -20.9192 -2.22179 -3.68924
upperback 0.972318 -2.05795 -0.866739
thorax 12.9984 -1.22178 0.465952
lowerneck -0.869789 1.63594 -1.26611
upperneck 26.0456 -1.35954 4.06612
head 8.21406 -1.40797 1.3398
rclavicle 3.2551e-015 1.91454e-014
rhumerus -34.4498 -11.9248 -73.0182
rradius 36.2626
rwrist -4.29112
rhand -8.11829 -53.8349
rfingers 7.12502
rthumb 17.795 -83.0407
lclavicle 3.2551e-015 1.91454e-014
lhumerus -36.3543 -0.749039 77.8376
lradius 29.2072
lwrist -0.787737
lhand -20.5296 -12.0426
lfingers 7.12502
lthumb 5.82856 17.8573
rfemur -25.7358 7.41808 13.2162
rtibia 33.0518
rfoot -35.9177 -14.59
rtoes -22.5424
lfemur -34.3447 -14.046 -8.25871
ltibia 12.1588
lfoot 14.9782 10.3332
ltoes -34.822
192
root 15.0887 19.0217 19.7509 -156.825 -4.58931 176.227
lowerback -22.2889 -1.40185 -3.01111
upperback 0.449215 -1.14573 -0.912255
thorax 13.1162 -0.77248 0.295953
lowerneck -1.05193 1.51938 -1.2882
upperneck 26.0814 -1.54924 4.16742
head 8.26595 -1.48807 1.36343
rclavicle 4.96962e-017 1.63997e-014
rhumerus -34.2136 -12.1633 -73.0438
rradius 36.0696
rwrist -3.71901
rhand -8.13469 -52.5541
rfingers 7.12502
rthumb 17.7792 -81.7613
lclavicle 4.96962e-017 1.63997e-014
lhumerus -36.3827 -0.686466 77.7047
lradius 29.3344
lwrist -0.549139
lhand -20.5474 -11.9862
lfingers 7.12502
lthumb 5.81129 17.9141
rfemur -29.4155 8.55844 13.008
rtibia 35.5399
rfoot -36.509 -13.7925
rtoes -23.2779
lfemur -35.7165 -13.0053 -6.86637
ltibia 11.708
lfoot 14.6977 11.7726
ltoes -36.1917
193
root 15.0424 18.9908 19.6878 -157.517 -4.94876 176.088
lowerback -21.8292 -1.65618 -3.29829
upperback 0.713322 -1.39823 -0.878246
thorax 13.1786 -0.900973 0.422065
lowerneck -1.2248 1.53822 -1.11922
upperneck 26.1831 -1.47447 3.89126
head 8.32878 -1.45743 1.24637
rclavicle -2.8128e-014 -1.39149e-014
rhumerus -34.181 -12.1177 -72.963
rradius 36.1362
rwrist -3.57
rhand -7.912 -51.3819
rfingers 7.12502
rthumb 17.9935 -80.5696
lclavicle -2.8128e-014 -1.39149e-014
lhumerus -36.4762 -0.534404 77.6121
lradius 29.5761
lwrist -0.108238
lhand -19.9996 -12.1891
lfingers 7.12502
lthumb 6.34019 17.696
rfemur -28.1838 8.45649 12.9988
rtibia 35.5501
rfoot -36.8734 -14.2329
rtoes -23.4282
lfemur -34.6105 -13.7366 -7.08964
ltibia 10.9161
lfoot 15.0197 11.4283
ltoes -37.2562
194
root 14.9769 18.9422 19.6555 -157.121 -4.28746 176.397
lowerback -22.1106 -1.42744 -3.08248
upperback 0.524303 -1.16667 -0.829545
thorax 13.1063 -0.786824 0.42645
lowerneck -1.12767 1.83944 -1.03163
upperneck 25.9381 -0.929075 3.66893
head 8.21011 -1.19504 1.19824
rclavicle 1.63997e-015 2.08724e-014
rhumerus -34.4857 -11.8125 -72.7818
rradius 36.6178
rwrist -3.85001
rhand -7.62851 -52.0857
rfingers 7.12502
rthumb 18.2663 -81.2481
lclavicle 1.63997e-015 2.08724e-014
lhumerus -36.6451 -0.352095 77.5893
lradius 29.7004
lwrist 0.114362
lhand -19.5805 -12.4722
lfingers 7.12502
lthumb 6.74481 17.4004
rfemur -29.0769 8.60407 12.8618
rtibia 36.3602
rfoot -37.0761 -14.2532
rtoes -24.8866
lfemur -34.84 -13.8896 -6.56178
ltibia 10.4871
lfoot 14.8844 12.2085
ltoes -35.8488
195
root 14.9211 18.9007 19.6104 -157.247 -4.17834 176.522
lowerback -22.1225 -1.44872 -3.09807
upperback 0.66523 -1.17925 -0.798522
thorax 13.279 -0.792448 0.464036
lowerneck -1.19967 1.19609 -1.81698
upperneck 27.2361 -2.30831 4.20326
head 8.72144 -1.97227 1.40057
rclavicle 2.73329e-016 6.4605e-016
rhumerus -34.4244 -11.7698 -72.8001
rradius 37.0019
rwrist -3.95414
rhand -7.57485 -53.1425
rfingers 7.12502
rthumb 18.3179 -82.3
lclavicle 2.73329e-016 6.4605e-016
lhumerus -36.5211 -0.269301 77.5525
lradius 29.6938
lwrist 0.0755956
lhand -19.801 -12.5438
lfingers 7.12502
lthumb 6.53193 17.3355
rfemur -29.0549 8.72916 12.8098
rtibia 36.9824
rfoot -37.4992 -14.5523
rtoes -25.7696
lfemur -34.564 -14.1981 -6.42811
ltibia 10.0942
lfoot 15.1349 12.1177
ltoes -35.473
196
root 14.8692 18.8505 19.568 -157.068 -3.9141 176.78
lowerback -22.8022 -1.38788 -2.92332
upperback 0.921097 -1.09629 -0.844866
thorax 13.9611 -0.741755 0.320341
lowerneck -1.05124 1.67007 -1.31372
upperneck 26.0374 -1.23379 3.80237
head 8.23881 -1.36907 1.26832
rclavicle -5.54112e-015 -2.00773e-014
rhumerus -33.8706 -12.0346 -73.0674
rradius 37.1323
rwrist -3.95379
rhand -7.57699 -53.7742
rfingers 7.12502
rthumb 18.3158 -82.9319
lclavicle -5.54112e-015 -2.00773e-014
lhumerus -36.0627 -0.301873 77.4402
lradius 29.6206
lwrist -0.0519249
lhand -20.2458 -12.6647
lfingers 7.12502
lthumb 6.10255 17.2274
rfemur -29.6004 8.91942 12.8395
rtibia 37.9852
rfoot -38.112 -14.6557
rtoes -26.5661
lfemur -34.6657 -14.1138 -6.11936
ltibia 9.87868
lfoot 15.3532 11.7843
ltoes -36.0775
197
root 14.8199 18.7918 19.5221 -156.606 -3.36913 177.085
lowerback -23.8675 -1.26645 -2.84125
upperback 1.11008 -0.911211 -0.857903
thorax 14.791 -0.656962 0.298023
lowerneck -1.12787 1.40744 -1.05419
upperneck 25.9862 -1.61006 3.7127
head 8.2467 -1.52751 1.1659
rclavicle -3.10601e-015 1.49089e-015
rhumerus -33.3302 -12.1054 -73.2794
rradius 37.2575
rwrist -4.20918
rhand -7.58147 -54.1171
rfingers 7.12502
rthumb 18.3115 -83.2752
lclavicle -3.10601e-015 1.49089e-015
lhumerus -35.5844 -0.153437 77.3186
lradius 29.5342
lwrist -0.0973786
lhand -20.3729 -12.6568
lfingers 7.12502
lthumb 5.97982 17.2388
rfemur -30.6176 9.32039 12.8172
rtibia 39.143
rfoot -38.7349 -14.5838
rtoes -27.2078
lfemur -34.9267 -13.6607 -5.78031
ltibia 9.69555
lfoot 15.4855 11.405
ltoes -36.5375
198
root 14.7606 18.7393 19.4709 -156.565 -3.13934 177.263
lowerback -23.1729 -1.34264 -2.94062
upperback 0.625932 -1.07458 -0.667424
thorax 13.8284 -0.749297 0.535813
lowerneck -1.32774 1.51069 -0.819387
upperneck 25.6771 -1.24883 3.1983
head 8.16464 -1.35052 0.981623
rclavicle -8.54774e-015 -1.47101e-014
rhumerus -33.9993 -11.3144 -72.9829
rradius 37.5016
rwrist -4.57216
rhand -7.50448 -53.9444
rfingers 7.12502
rthumb 18.3856 -83.0955
lclavicle -8.54774e-015 -1.47101e-014
lhumerus -36.5699 0.311413 77.3457
lradius 29.7852
lwrist 0.0433767
lhand -20.0653 -12.4169
lfingers 7.12502
lthumb 6.27677 17.4702
rfemur -30.98 9.4296 12.7221
rtibia 40.0898
rfoot -39.4284 -14.3466
rtoes -26.9681
lfemur -34.7571 -14.0334 -5.5356
ltibia 9.41384
lfoot 15.5535 11.3707
ltoes -36.5858
199
root 14.6994 18.6858 19.4235 -156.594 -3.05357 177.359
lowerback -23.2445 -1.29393 -2.94067
upperback 0.627024 -0.997117 -0.770622
thorax 13.8658 -0.711106 0.443318
lowerneck -0.594418 2.41523 -0.72983
upperneck 25.6917 -0.0507038 3.28178
head 8.00883 -0.795435 1.0769
rclavicle 7.05686e-015 -3.77691e-015
rhumerus -34.2042 -11.6699 -72.9871
rradius 37.6744
rwrist -4.37392
rhand -7.56383 -53.5763
rfingers 7.12502
rthumb 18.3285 -82.7328
lclavicle 7.05686e-015 -3.77691e-015
lhumerus -36.697 0.132462 77.1772
lradius 29.9926
lwrist 0.357292
lhand -19.7662 -12.1279
lfingers 7.12502
lthumb 6.56555 17.7504
rfemur -31.1427 9.28662 12.6414
rtibia 40.9787
rfoot -40.101 -14.3151
rtoes -27.4805
lfemur -34.6068 -14.4978 -5.44154
ltibia 9.2756
lfoot 15.5604 11.2078
ltoes -36.7609
200
root 14.6381 18.6323 19.3834 -156.563 -2.95225 177.466
lowerback -23.2045 -1.33234 -2.9809
upperback 0.69285 -1.02903 -0.792896
thorax 13.9221 -0.726308 0.429777
lowerneck -1.35274 1.63447 -0.486489
upperneck 25.86 -1.19232 3.33621
head 8.2321 -1.29413 0.972685
rclavicle 4.91992e-015 -3.37934e-015
rhumerus -34.2128 -11.6549 -73.112
rradius 38.0893
rwrist -4.32098
rhand -7.73917 -53.0789
rfingers 7.12502
rthumb 18.1598 -82.2511
lclavicle 4.91992e-015 -3.37934e-015
lhumerus -36.594 0.286195 77.0235
lradius 30.0697
lwrist 0.549372
lhand -19.6371 -12.1088
lfingers 7.12502
lthumb 6.69016 17.7655
rfemur -31.4398 9.32825 12.5245
rtibia 41.8901
rfoot -40.6621 -14.6898
rtoes -28.9331
lfemur -34.6337 -14.9709 -5.28631
ltibia 9.35453
lfoot 15.517 10.9814
ltoes -37.514
